<svg xmlns="http://www.w3.org/2000/svg" width="98.406" height="98.406" viewBox="0 0 98.406 98.406"><defs><style>.a{fill:#0063bc;}</style></defs><g transform="translate(27.882 39.363)"><path class="a" d="M153.267,204.8a8.2,8.2,0,0,0,0,16.4,1.64,1.64,0,0,0,0-3.28,4.92,4.92,0,1,1,4.92-4.92,1.64,1.64,0,1,0,3.28,0A8.21,8.21,0,0,0,153.267,204.8Z" transform="translate(-145.066 -204.8)"/></g><g transform="translate(36.082 32.802)"><path class="a" d="M195.934,170.667a8.21,8.21,0,0,0-8.2,8.2,1.64,1.64,0,0,0,3.28,0,4.92,4.92,0,1,1,9.841,0,1.64,1.64,0,0,0,3.28,0A8.209,8.209,0,0,0,195.934,170.667Z" transform="translate(-187.733 -170.667)"/></g><g transform="translate(47.563 27.882)"><path class="a" d="M255.667,145.067a8.21,8.21,0,0,0-8.2,8.2,1.64,1.64,0,1,0,3.28,0,4.92,4.92,0,0,1,9.841,0,1.64,1.64,0,1,0,3.28,0A8.209,8.209,0,0,0,255.667,145.067Z" transform="translate(-247.466 -145.067)"/></g><g transform="translate(54.124 36.082)"><path class="a" d="M289.8,187.733a8.21,8.21,0,0,0-8.2,8.2,1.64,1.64,0,1,0,3.28,0,4.92,4.92,0,1,1,9.841,0,1.64,1.64,0,1,0,3.28,0A8.21,8.21,0,0,0,289.8,187.733Z" transform="translate(-281.6 -187.733)"/></g><g transform="translate(19.681 82.005)"><path class="a" d="M159.8,426.667H104.04a1.64,1.64,0,0,0-1.64,1.64v7.764a7,7,0,0,0,7,7h45.051a7,7,0,0,0,7-7v-7.764A1.64,1.64,0,0,0,159.8,426.667Zm-1.64,9.4a3.72,3.72,0,0,1-3.715,3.716H109.4a3.721,3.721,0,0,1-3.717-3.716v-6.124h52.483Z" transform="translate(-102.4 -426.667)"/></g><g transform="translate(42.643 88.566)"><path class="a" d="M233.348,460.8h-9.841a1.64,1.64,0,1,0,0,3.28h9.841a1.64,1.64,0,0,0,0-3.28Z" transform="translate(-221.867 -460.8)"/></g><g transform="translate(60.684 88.566)"><path class="a" d="M323.934,460.8h-6.56a1.64,1.64,0,0,0,0,3.28h6.56a1.64,1.64,0,0,0,0-3.28Z" transform="translate(-315.734 -460.8)"/></g><g transform="translate(27.882 88.566)"><path class="a" d="M153.267,460.8h-6.56a1.64,1.64,0,0,0,0,3.28h6.56a1.64,1.64,0,0,0,0-3.28Z" transform="translate(-145.067 -460.8)"/></g><g transform="translate(19.681)"><path class="a" d="M154.449,0H109.4a7,7,0,0,0-7,7v7.764a1.64,1.64,0,0,0,1.64,1.64H159.8a1.64,1.64,0,0,0,1.64-1.64V7A7,7,0,0,0,154.449,0Zm3.715,13.121H105.68V7A3.721,3.721,0,0,1,109.4,3.28h45.051A3.72,3.72,0,0,1,158.164,7v6.124Z" transform="translate(-102.4)"/></g><g transform="translate(39.363 6.56)"><path class="a" d="M222.842,34.133h-16.4a1.64,1.64,0,1,0,0,3.28h16.4a1.64,1.64,0,1,0,0-3.28Z" transform="translate(-204.801 -34.133)"/></g><g transform="translate(19.681 13.121)"><path class="a" d="M159.8,68.267H104.04a1.64,1.64,0,0,0-1.64,1.64v68.884a1.64,1.64,0,0,0,1.64,1.64H159.8a1.64,1.64,0,0,0,1.64-1.64V69.907A1.639,1.639,0,0,0,159.8,68.267Zm-1.64,68.884H105.68v-65.6h52.483v65.6Z" transform="translate(-102.4 -68.267)"/></g><g transform="translate(83.634 36.082)"><path class="a" d="M438.368,188.916a1.64,1.64,0,0,0-3.151.915,39.634,39.634,0,0,1-.012,22.081,1.641,1.641,0,0,0,1.115,2.034,1.667,1.667,0,0,0,.461.066,1.642,1.642,0,0,0,1.575-1.179,42.905,42.905,0,0,0,.011-23.916Z" transform="translate(-435.141 -187.733)"/></g><g transform="translate(9.852 36.081)"><path class="a" d="M56.115,211.9a39.619,39.619,0,0,1-.01-22.082,1.64,1.64,0,0,0-3.151-.915,42.907,42.907,0,0,0,.012,23.916A1.638,1.638,0,0,0,54.539,214a1.6,1.6,0,0,0,.461-.066A1.639,1.639,0,0,0,56.115,211.9Z" transform="translate(-51.26 -187.725)"/></g><g transform="translate(0 29.522)"><path class="a" d="M3.28,173.28c0-6.675,1.114-12.845,3.137-17.372a1.64,1.64,0,0,0-2.995-1.338C1.215,159.51,0,166.152,0,173.28s1.215,13.77,3.421,18.71a1.645,1.645,0,0,0,1.5.971,1.617,1.617,0,0,0,.669-.143,1.641,1.641,0,0,0,.828-2.167C4.394,186.126,3.28,179.956,3.28,173.28Z" transform="translate(0 -153.599)"/></g><g transform="translate(91.846 29.521)"><path class="a" d="M481,154.568a1.64,1.64,0,0,0-2.995,1.338c2.024,4.527,3.138,10.7,3.138,17.372s-1.114,12.845-3.136,17.372a1.642,1.642,0,0,0,.828,2.167,1.609,1.609,0,0,0,.668.143,1.641,1.641,0,0,0,1.5-.971c2.208-4.94,3.423-11.583,3.423-18.71S483.211,159.508,481,154.568Z" transform="translate(-477.866 -153.596)"/></g><g transform="translate(32.802 67.244)"><path class="a" d="M201.829,349.867H172.307a1.64,1.64,0,1,0,0,3.28h29.522a1.64,1.64,0,1,0,0-3.28Z" transform="translate(-170.667 -349.867)"/></g><g transform="translate(26.242 60.684)"><path class="a" d="M180.817,315.733H138.174a1.64,1.64,0,0,0-1.64,1.64v13.121a1.64,1.64,0,0,0,1.64,1.64h42.643a1.64,1.64,0,0,0,1.64-1.64V317.373A1.64,1.64,0,0,0,180.817,315.733Zm-1.64,13.121H139.814v-9.841h39.363Z" transform="translate(-136.534 -315.733)"/></g></svg>