<svg xmlns="http://www.w3.org/2000/svg" width="104.432" height="86" viewBox="0 0 104.432 86"><defs><style>.a{fill:#0063bc;}</style></defs><g transform="translate(0 -45.5)"><g transform="translate(45.396 117.953)"><g transform="translate(0 0)"><ellipse class="a" cx="6.5" cy="7" rx="6.5" ry="7" transform="translate(0.105 -0.453)"/></g></g><g transform="translate(0 45.5)"><path class="a" d="M103.337,67.807a69.731,69.731,0,0,0-102.242,0A4.079,4.079,0,1,0,7.064,73.37a61.572,61.572,0,0,1,90.305,0,4.079,4.079,0,0,0,5.969-5.563Z" transform="translate(0 -45.5)"/></g><g transform="translate(14.89 69.17)"><path class="a" d="M146.467,177.03a49.925,49.925,0,0,0-72.285,0,4.079,4.079,0,1,0,5.791,5.747,41.772,41.772,0,0,1,60.7,0,4.08,4.08,0,0,0,5.791-5.747Z" transform="translate(-72.998 -161.547)"/></g><g transform="translate(30.815 93.025)"><path class="a" d="M192.293,287.024a29.436,29.436,0,0,0-19.854-8.524h-.3a29.438,29.438,0,0,0-19.855,8.524,4.079,4.079,0,1,0,5.742,5.8,21.3,21.3,0,0,1,14.113-6.161h.3a21.3,21.3,0,0,1,14.112,6.161,4.079,4.079,0,0,0,5.742-5.8Z" transform="translate(-151.076 -278.5)"/></g></g></svg>